<svg xmlns="http://www.w3.org/2000/svg" viewBox="0 0 283.48 113.75"><defs><style>.cls-1,.cls-2,.cls-3,.cls-5{fill:none;stroke:#820900;stroke-miterlimit:10;stroke-width:3px;}.cls-2{stroke-dasharray:11.71 11.71;}.cls-3{stroke-dasharray:12 12;}.cls-4{fill:#820900;}.cls-5{stroke-dasharray:11.48 11.48;}.cls-6{font-size:67px;fill:#ffcb0d;font-family:FredokaOne-Regular, Fredoka One;letter-spacing:-0.02em;}.cls-7{letter-spacing:0em;}.cls-8{letter-spacing:-0.05em;}.cls-9{letter-spacing:-0.03em;}.cls-10{letter-spacing:-0.01em;}.cls-11{letter-spacing:0em;}</style></defs><title>logo_re-cycle</title><g id="Layer_2" data-name="Layer 2"><g id="Design_elements" data-name="Design elements"><line class="cls-1" x1="202.79" y1="112.58" x2="207.49" y2="108.85"/><line class="cls-2" x1="216.66" y1="101.57" x2="267.11" y2="61.55"/><line class="cls-1" x1="271.7" y1="57.91" x2="276.4" y2="54.18"/><line class="cls-3" x1="276.4" y1="54.18" x2="190.39" y2="15.44"/><polygon class="cls-4" points="200.53 3.6 170.77 6.6 188.24 30.88 200.53 3.6"/><line class="cls-1" x1="81.69" y1="1.24" x2="76.75" y2="4.63"/><line class="cls-5" x1="67.28" y1="11.12" x2="15.23" y2="46.84"/><line class="cls-1" x1="10.5" y1="50.08" x2="5.55" y2="53.48"/><line class="cls-3" x1="5.55" y1="53.48" x2="86.9" y2="97.14"/><polygon class="cls-4" points="75.97 108.25 105.87 107.32 90.12 81.89 75.97 108.25"/><text class="cls-6" transform="translate(0 73.45)">R<tspan class="cls-7" x="41" y="0">e-</tspan><tspan class="cls-8" x="108.41" y="0">C</tspan><tspan class="cls-9" x="150.61" y="0">y</tspan><tspan class="cls-7" x="189.14" y="0">c</tspan><tspan class="cls-10" x="223.78" y="0">l</tspan><tspan class="cls-11" x="245.08" y="0">e</tspan></text></g></g></svg>